<svg width="130" height="40" viewBox="0 0 130 40" fill="none" xmlns="http://www.w3.org/2000/svg">
<g opacity="0.8">
<path d="M22.5853 13.2139C22.5955 11.4433 23.6477 10.391 25.216 10.391C26.8045 10.391 27.7252 11.4129 27.7151 13.1431V22.0772H32.6627V12.1718C32.6728 8.65077 30.5279 6.33378 27.2598 6.33378C24.9327 6.33378 23.2936 7.4771 22.5955 9.38938H22.4234V1.35579H17.6377V22.0772H22.5853V13.2139Z" fill="white"/>
<path d="M35.7512 22.0772H40.6988V6.53614H35.7512V22.0772ZM38.2301 4.72504C39.6365 4.72504 40.7697 3.66267 40.7697 2.35746C40.7697 1.05226 39.6365 0 38.2301 0C36.8338 0 35.6905 1.05226 35.6905 2.35746C35.6905 3.66267 36.8338 4.72504 38.2301 4.72504Z" fill="white"/>
<path d="M57.4161 11.2814C57.153 8.20559 54.6337 6.33378 50.4246 6.33378C46.2156 6.33378 43.5344 8.16511 43.5546 11.2814C43.5344 13.6692 45.0622 15.2071 48.1683 15.7839L50.8799 16.2999C52.1649 16.5528 52.7517 16.9575 52.772 17.6455C52.7517 18.4246 51.8816 18.9406 50.6169 18.9406C49.2105 18.9406 48.2594 18.3336 48.0469 17.2004L43.16 17.3218C43.5141 20.3976 46.1549 22.3706 50.5966 22.3706C54.7551 22.3706 57.7803 20.2964 57.8005 17.0992C57.7803 14.8328 56.2829 13.4871 53.1868 12.8902L50.1919 12.3236C48.8766 12.0605 48.4516 11.5951 48.4618 10.9981C48.4516 10.2089 49.3724 9.72327 50.5157 9.72327C51.8209 9.72327 52.7315 10.4214 52.8731 11.4028L57.4161 11.2814Z" fill="white"/>
<path d="M69.0086 6.53614H66.206V2.81277H61.2583V6.53614H59.2044V10.1786H61.2583V17.7366C61.228 20.8833 63.2718 22.4617 66.7624 22.2998C67.9564 22.2391 68.8164 21.9962 69.2919 21.8546L68.5432 18.283C68.3307 18.3336 67.8349 18.4347 67.4606 18.4347C66.6613 18.4347 66.206 18.111 66.206 17.1902V10.1786H69.0086V6.53614Z" fill="white"/>
<path d="M78.6206 22.3706C83.5075 22.3706 86.472 19.143 86.472 14.3572C86.472 9.56138 83.5075 6.33378 78.6206 6.33378C73.7337 6.33378 70.7691 9.56138 70.7691 14.3572C70.7691 19.143 73.7337 22.3706 78.6206 22.3706ZM78.6509 18.6371C76.8196 18.6371 75.8078 16.8968 75.8078 14.3269C75.8078 11.7468 76.8196 9.99645 78.6509 9.99645C80.4216 9.99645 81.4333 11.7468 81.4333 14.3269C81.4333 16.8968 80.4216 18.6371 78.6509 18.6371ZM76.9107 4.56316H80.2799L83.3355 0H78.9545L76.9107 4.56316Z" fill="white"/>
<path d="M89.0066 22.0772H93.9542V13.6389C93.9542 11.7873 95.2695 10.5428 97.0401 10.5428C97.627 10.5428 98.5072 10.644 98.9828 10.8059V6.50579C98.5679 6.39449 98.0519 6.32366 97.5966 6.32366C95.8968 6.32366 94.541 7.31521 93.9744 9.36914H93.8125V6.53614H89.0066V22.0772Z" fill="white"/>
<path d="M100.999 22.0772H105.946V6.53614H100.999V22.0772ZM103.478 4.72504C104.884 4.72504 106.017 3.66267 106.017 2.35746C106.017 1.05226 104.884 0 103.478 0C102.081 0 100.938 1.05226 100.938 2.35746C100.938 3.66267 102.081 4.72504 103.478 4.72504Z" fill="white"/>
<path d="M113.477 22.3402C115.642 22.3402 117.139 21.5005 117.989 19.912H118.111V22.0772H122.765V11.5141C122.765 8.22582 119.841 6.33378 115.885 6.33378C111.706 6.33378 109.338 8.4383 108.944 11.2713L113.507 11.4332C113.719 10.4416 114.539 9.83456 115.844 9.83456C117.058 9.83456 117.827 10.4214 117.827 11.4635V11.5141C117.827 12.4652 116.795 12.6676 114.144 12.9003C110.998 13.1633 108.367 14.3269 108.367 17.767C108.367 20.8428 110.502 22.3402 113.477 22.3402ZM115.004 19.1025C113.861 19.1025 113.052 18.5562 113.052 17.5241C113.052 16.5225 113.841 15.9154 115.247 15.7029C116.168 15.5714 117.301 15.369 117.858 15.0756V16.5528C117.858 18.0705 116.583 19.1025 115.004 19.1025Z" fill="white"/>
<path d="M23.4674 36.1023C23.4674 36.3245 23.4545 36.5596 23.4289 36.8075H17.8131C17.8559 37.4998 18.0909 38.0426 18.5183 38.4358C18.9542 38.8204 19.4799 39.0128 20.0953 39.0128C20.5996 39.0128 21.0185 38.8974 21.3518 38.6666C21.6937 38.4272 21.9331 38.111 22.0698 37.7178H23.3263C23.1383 38.3931 22.7622 38.9444 22.198 39.3718C21.6339 39.7906 20.933 40 20.0953 40C19.4286 40 18.8303 39.8504 18.3003 39.5513C17.7789 39.2521 17.3687 38.829 17.0695 38.2819C16.7703 37.7263 16.6207 37.0853 16.6207 36.3587C16.6207 35.6322 16.7661 34.9954 17.0567 34.4484C17.3473 33.9013 17.7533 33.4825 18.2747 33.1919C18.8047 32.8927 19.4115 32.7431 20.0953 32.7431C20.762 32.7431 21.3518 32.8884 21.8647 33.179C22.3775 33.4697 22.7707 33.8714 23.0442 34.3842C23.3263 34.8886 23.4674 35.4612 23.4674 36.1023ZM22.2621 35.8587C22.2621 35.4142 22.1638 35.0339 21.9673 34.7176C21.7707 34.3928 21.5014 34.1492 21.1595 33.9868C20.8262 33.8158 20.4543 33.7304 20.0441 33.7304C19.4543 33.7304 18.95 33.9184 18.5311 34.2945C18.1208 34.6706 17.8858 35.192 17.826 35.8587H22.2621Z" fill="white"/>
<path d="M27.4948 40C26.9563 40 26.4733 39.9103 26.0459 39.7308C25.6186 39.5427 25.2809 39.2863 25.0331 38.9615C24.7852 38.6281 24.6484 38.2477 24.6228 37.8204H25.828C25.8622 38.1708 26.0246 38.4572 26.3152 38.6794C26.6144 38.9016 27.0033 39.0128 27.4819 39.0128C27.9264 39.0128 28.2769 38.9145 28.5333 38.7179C28.7897 38.5213 28.9179 38.2734 28.9179 37.9742C28.9179 37.6665 28.7812 37.44 28.5076 37.2947C28.2341 37.1408 27.811 36.9913 27.2383 36.8459C26.7169 36.7092 26.2896 36.5724 25.9562 36.4357C25.6314 36.2904 25.3493 36.0809 25.11 35.8074C24.8792 35.5253 24.7638 35.1578 24.7638 34.7048C24.7638 34.3458 24.8707 34.0167 25.0843 33.7175C25.298 33.4184 25.6015 33.1833 25.9947 33.0124C26.3878 32.8329 26.8366 32.7431 27.3409 32.7431C28.1187 32.7431 28.747 32.9397 29.2256 33.3329C29.7043 33.7261 29.9607 34.2646 29.9949 34.9484H28.8282C28.8025 34.5808 28.653 34.2859 28.3794 34.0637C28.1145 33.8415 27.7555 33.7304 27.3024 33.7304C26.8836 33.7304 26.5503 33.8201 26.3024 33.9996C26.0545 34.1791 25.9306 34.4142 25.9306 34.7048C25.9306 34.9356 26.0032 35.1279 26.1485 35.2817C26.3024 35.427 26.4904 35.5467 26.7127 35.6407C26.9434 35.7262 27.2597 35.8245 27.6614 35.9356C28.1657 36.0724 28.576 36.2092 28.8923 36.3459C29.2085 36.4741 29.4778 36.6707 29.7 36.9357C29.9308 37.2007 30.0505 37.5468 30.059 37.9742C30.059 38.3589 29.9522 38.705 29.7385 39.0128C29.5248 39.3205 29.2214 39.5641 28.8282 39.7436C28.4435 39.9145 27.9991 40 27.4948 40Z" fill="white"/>
<path d="M33.1292 33.8201V37.9614C33.1292 38.3033 33.2019 38.5469 33.3472 38.6922C33.4925 38.829 33.7447 38.8974 34.1037 38.8974H34.9627V39.8846H33.9113C33.2617 39.8846 32.7745 39.735 32.4497 39.4359C32.1249 39.1367 31.9625 38.6452 31.9625 37.9614V33.8201H31.0522V32.8585H31.9625V31.0892H33.1292V32.8585H34.9627V33.8201H33.1292Z" fill="white"/>
<path d="M35.9404 36.3459C35.9404 35.6279 36.0857 34.9997 36.3764 34.4612C36.667 33.9141 37.0644 33.491 37.5687 33.1919C38.0816 32.8927 38.65 32.7431 39.274 32.7431C39.8894 32.7431 40.4236 32.8756 40.8766 33.1406C41.3297 33.4056 41.6673 33.7389 41.8895 34.1406V32.8585H43.0691V39.8846H41.8895V38.5768C41.6587 38.9871 41.3126 39.329 40.851 39.6025C40.398 39.8675 39.868 40 39.2612 40C38.6372 40 38.073 39.8461 37.5687 39.5384C37.0644 39.2307 36.667 38.7991 36.3764 38.2435C36.0857 37.6879 35.9404 37.0554 35.9404 36.3459ZM41.8895 36.3587C41.8895 35.8288 41.7827 35.3672 41.569 34.974C41.3553 34.5808 41.0647 34.2817 40.6971 34.0765C40.3382 33.8628 39.9407 33.756 39.5048 33.756C39.0688 33.756 38.6714 33.8586 38.3124 34.0637C37.9534 34.2689 37.667 34.568 37.4533 34.9612C37.2397 35.3544 37.1328 35.816 37.1328 36.3459C37.1328 36.8844 37.2397 37.3545 37.4533 37.7563C37.667 38.1495 37.9534 38.4529 38.3124 38.6666C38.6714 38.8717 39.0688 38.9743 39.5048 38.9743C39.9407 38.9743 40.3382 38.8717 40.6971 38.6666C41.0647 38.4529 41.3553 38.1495 41.569 37.7563C41.7827 37.3545 41.8895 36.8887 41.8895 36.3587ZM40.9792 30.8712L38.2483 32.3328V31.461L40.9792 29.8583V30.8712Z" fill="white"/>
<path d="M51.8823 32.7303C52.737 32.7303 53.4294 32.991 53.9593 33.5124C54.4893 34.0252 54.7543 34.7689 54.7543 35.7433V39.8846H53.6003V35.91C53.6003 35.2091 53.4251 34.6749 53.0747 34.3073C52.7242 33.9312 52.2456 33.7432 51.6387 33.7432C51.0232 33.7432 50.5318 33.9355 50.1642 34.3201C49.8052 34.7048 49.6257 35.2646 49.6257 35.9997V39.8846H48.459V32.8585H49.6257V33.8586C49.8565 33.4996 50.1685 33.2218 50.5617 33.0252C50.9634 32.8286 51.4036 32.7303 51.8823 32.7303Z" fill="white"/>
<path d="M59.7244 40C59.0663 40 58.4679 39.8504 57.9294 39.5513C57.3995 39.2521 56.9807 38.829 56.673 38.2819C56.3738 37.7263 56.2242 37.0853 56.2242 36.3587C56.2242 35.6407 56.3781 35.0082 56.6858 34.4612C57.002 33.9056 57.4294 33.4825 57.9679 33.1919C58.5064 32.8927 59.109 32.7431 59.7757 32.7431C60.4424 32.7431 61.045 32.8927 61.5835 33.1919C62.122 33.4825 62.5451 33.9013 62.8528 34.4484C63.1691 34.9954 63.3272 35.6322 63.3272 36.3587C63.3272 37.0853 63.1648 37.7263 62.84 38.2819C62.5238 38.829 62.0921 39.2521 61.5451 39.5513C60.998 39.8504 60.3911 40 59.7244 40ZM59.7244 38.9743C60.1433 38.9743 60.5365 38.876 60.904 38.6794C61.2715 38.4828 61.5664 38.1879 61.7887 37.7947C62.0195 37.4015 62.1349 36.9229 62.1349 36.3587C62.1349 35.7946 62.0237 35.3159 61.8015 34.9227C61.5793 34.5296 61.2886 34.2389 60.9296 34.0509C60.5706 33.8543 60.1817 33.756 59.7629 33.756C59.3355 33.756 58.9423 33.8543 58.5833 34.0509C58.2329 34.2389 57.9508 34.5296 57.7371 34.9227C57.5234 35.3159 57.4166 35.7946 57.4166 36.3587C57.4166 36.9314 57.5192 37.4144 57.7243 37.8075C57.938 38.2007 58.2201 38.4956 58.5705 38.6922C58.921 38.8803 59.3056 38.9743 59.7244 38.9743Z" fill="white"/>
<path d="M67.3486 40C66.8101 40 66.3272 39.9103 65.8998 39.7308C65.4724 39.5427 65.1348 39.2863 64.8869 38.9615C64.6391 38.6281 64.5023 38.2477 64.4767 37.8204H65.6819C65.716 38.1708 65.8784 38.4572 66.1691 38.6794C66.4682 38.9016 66.8571 39.0128 67.3358 39.0128C67.7803 39.0128 68.1307 38.9145 68.3872 38.7179C68.6436 38.5213 68.7718 38.2734 68.7718 37.9742C68.7718 37.6665 68.635 37.44 68.3615 37.2947C68.088 37.1408 67.6649 36.9913 67.0922 36.8459C66.5708 36.7092 66.1434 36.5724 65.8101 36.4357C65.4853 36.2904 65.2032 36.0809 64.9639 35.8074C64.7331 35.5253 64.6177 35.1578 64.6177 34.7048C64.6177 34.3458 64.7245 34.0167 64.9382 33.7175C65.1519 33.4184 65.4554 33.1833 65.8485 33.0124C66.2417 32.8329 66.6905 32.7431 67.1948 32.7431C67.9726 32.7431 68.6009 32.9397 69.0795 33.3329C69.5582 33.7261 69.8146 34.2646 69.8488 34.9484H68.6821C68.6564 34.5808 68.5068 34.2859 68.2333 34.0637C67.9683 33.8415 67.6093 33.7304 67.1563 33.7304C66.7375 33.7304 66.4041 33.8201 66.1562 33.9996C65.9084 34.1791 65.7844 34.4142 65.7844 34.7048C65.7844 34.9356 65.8571 35.1279 66.0024 35.2817C66.1562 35.427 66.3443 35.5467 66.5665 35.6407C66.7973 35.7262 67.1136 35.8245 67.5153 35.9356C68.0196 36.0724 68.4299 36.2092 68.7462 36.3459C69.0624 36.4741 69.3317 36.6707 69.5539 36.9357C69.7847 37.2007 69.9044 37.5468 69.9129 37.9742C69.9129 38.3589 69.8061 38.705 69.5924 39.0128C69.3787 39.3205 69.0752 39.5641 68.6821 39.7436C68.2974 39.9145 67.8529 40 67.3486 40Z" fill="white"/>
<path d="M74.5422 36.3459C74.5422 35.6279 74.6875 34.9997 74.9781 34.4612C75.2688 33.9141 75.6662 33.491 76.1705 33.1919C76.6834 32.8927 77.2561 32.7431 77.8886 32.7431C78.4356 32.7431 78.9442 32.8713 79.4143 33.1278C79.8845 33.3756 80.2434 33.7047 80.4913 34.115V30.3968H81.6709V39.8846H80.4913V38.564C80.2605 38.9828 79.9186 39.329 79.4656 39.6025C79.0126 39.8675 78.4826 40 77.8758 40C77.2518 40 76.6834 39.8461 76.1705 39.5384C75.6662 39.2307 75.2688 38.7991 74.9781 38.2435C74.6875 37.6879 74.5422 37.0554 74.5422 36.3459ZM80.4913 36.3587C80.4913 35.8288 80.3845 35.3672 80.1708 34.974C79.9571 34.5808 79.6665 34.2817 79.2989 34.0765C78.9399 33.8628 78.5425 33.756 78.1066 33.756C77.6706 33.756 77.2732 33.8586 76.9142 34.0637C76.5552 34.2689 76.2688 34.568 76.0551 34.9612C75.8414 35.3544 75.7346 35.816 75.7346 36.3459C75.7346 36.8844 75.8414 37.3545 76.0551 37.7563C76.2688 38.1495 76.5552 38.4529 76.9142 38.6666C77.2732 38.8717 77.6706 38.9743 78.1066 38.9743C78.5425 38.9743 78.9399 38.8717 79.2989 38.6666C79.6665 38.4529 79.9571 38.1495 80.1708 37.7563C80.3845 37.3545 80.4913 36.8887 80.4913 36.3587Z" fill="white"/>
<path d="M90.0533 36.1023C90.0533 36.3245 90.0404 36.5596 90.0148 36.8075H84.399C84.4418 37.4998 84.6768 38.0426 85.1042 38.4358C85.5401 38.8204 86.0658 39.0128 86.6812 39.0128C87.1855 39.0128 87.6044 38.8974 87.9377 38.6666C88.2796 38.4272 88.519 38.111 88.6557 37.7178H89.9122C89.7242 38.3931 89.3481 38.9444 88.7839 39.3718C88.2198 39.7906 87.5189 40 86.6812 40C86.0145 40 85.4162 39.8504 84.8862 39.5513C84.3648 39.2521 83.9546 38.829 83.6554 38.2819C83.3562 37.7263 83.2066 37.0853 83.2066 36.3587C83.2066 35.6322 83.352 34.9954 83.6426 34.4484C83.9332 33.9013 84.3392 33.4825 84.8606 33.1919C85.3905 32.8927 85.9974 32.7431 86.6812 32.7431C87.3479 32.7431 87.9377 32.8884 88.4506 33.179C88.9634 33.4697 89.3566 33.8714 89.6301 34.3842C89.9122 34.8886 90.0533 35.4612 90.0533 36.1023ZM88.848 35.8587C88.848 35.4142 88.7497 35.0339 88.5531 34.7176C88.3566 34.3928 88.0873 34.1492 87.7454 33.9868C87.412 33.8158 87.0402 33.7304 86.63 33.7304C86.0402 33.7304 85.5359 33.9184 85.117 34.2945C84.7067 34.6706 84.4717 35.192 84.4119 35.8587H88.848Z" fill="white"/>
<path d="M93.0165 33.8201V37.9614C93.0165 38.3033 93.0891 38.5469 93.2345 38.6922C93.3798 38.829 93.6319 38.8974 93.9909 38.8974H94.8499V39.8846H93.7986C93.149 39.8846 92.6618 39.735 92.337 39.4359C92.0121 39.1367 91.8497 38.6452 91.8497 37.9614V33.8201H90.9394V32.8585H91.8497V31.0892H93.0165V32.8585H94.8499V33.8201H93.0165Z" fill="white"/>
<path d="M95.8277 36.3459C95.8277 35.6279 95.973 34.9997 96.2636 34.4612C96.5542 33.9141 96.9517 33.491 97.456 33.1919C97.9688 32.8927 98.5373 32.7431 99.1612 32.7431C99.7766 32.7431 100.311 32.8756 100.764 33.1406C101.217 33.4056 101.555 33.7389 101.777 34.1406V32.8585H102.956V39.8846H101.777V38.5768C101.546 38.9871 101.2 39.329 100.738 39.6025C100.285 39.8675 99.7553 40 99.1484 40C98.5244 40 97.9603 39.8461 97.456 39.5384C96.9517 39.2307 96.5542 38.7991 96.2636 38.2435C95.973 37.6879 95.8277 37.0554 95.8277 36.3459ZM101.777 36.3587C101.777 35.8288 101.67 35.3672 101.456 34.974C101.243 34.5808 100.952 34.2817 100.584 34.0765C100.225 33.8628 99.8279 33.756 99.392 33.756C98.9561 33.756 98.5586 33.8586 98.1996 34.0637C97.8406 34.2689 97.5543 34.568 97.3406 34.9612C97.1269 35.3544 97.0201 35.816 97.0201 36.3459C97.0201 36.8844 97.1269 37.3545 97.3406 37.7563C97.5543 38.1495 97.8406 38.4529 98.1996 38.6666C98.5586 38.8717 98.9561 38.9743 99.392 38.9743C99.8279 38.9743 100.225 38.8717 100.584 38.6666C100.952 38.4529 101.243 38.1495 101.456 37.7563C101.67 37.3545 101.777 36.8887 101.777 36.3587Z" fill="white"/>
<path d="M106.095 30.3968V39.8846H104.928V30.3968H106.095Z" fill="white"/>
<path d="M111.571 32.7303C112.101 32.7303 112.579 32.8457 113.007 33.0765C113.434 33.2987 113.767 33.6363 114.007 34.0894C114.255 34.5424 114.379 35.0937 114.379 35.7433V39.8846H113.225V35.91C113.225 35.2091 113.049 34.6749 112.699 34.3073C112.349 33.9312 111.87 33.7432 111.263 33.7432C110.648 33.7432 110.156 33.9355 109.789 34.3201C109.43 34.7048 109.25 35.2646 109.25 35.9997V39.8846H108.083V30.3968H109.25V33.8586C109.481 33.4996 109.797 33.2218 110.199 33.0252C110.609 32.8286 111.066 32.7303 111.571 32.7303Z" fill="white"/>
<path d="M122.695 36.1023C122.695 36.3245 122.682 36.5596 122.657 36.8075H117.041C117.084 37.4998 117.319 38.0426 117.746 38.4358C118.182 38.8204 118.708 39.0128 119.323 39.0128C119.827 39.0128 120.246 38.8974 120.58 38.6666C120.921 38.4272 121.161 38.111 121.298 37.7178H122.554C122.366 38.3931 121.99 38.9444 121.426 39.3718C120.862 39.7906 120.161 40 119.323 40C118.656 40 118.058 39.8504 117.528 39.5513C117.007 39.2521 116.596 38.829 116.297 38.2819C115.998 37.7263 115.849 37.0853 115.849 36.3587C115.849 35.6322 115.994 34.9954 116.284 34.4484C116.575 33.9013 116.981 33.4825 117.502 33.1919C118.032 32.8927 118.639 32.7431 119.323 32.7431C119.99 32.7431 120.58 32.8884 121.092 33.179C121.605 33.4697 121.998 33.8714 122.272 34.3842C122.554 34.8886 122.695 35.4612 122.695 36.1023ZM121.49 35.8587C121.49 35.4142 121.392 35.0339 121.195 34.7176C120.998 34.3928 120.729 34.1492 120.387 33.9868C120.054 33.8158 119.682 33.7304 119.272 33.7304C118.682 33.7304 118.178 33.9184 117.759 34.2945C117.349 34.6706 117.114 35.192 117.054 35.8587H121.49Z" fill="white"/>
<path d="M126.723 40C126.184 40 125.701 39.9103 125.274 39.7308C124.846 39.5427 124.509 39.2863 124.261 38.9615C124.013 38.6281 123.876 38.2477 123.851 37.8204H125.056C125.09 38.1708 125.252 38.4572 125.543 38.6794C125.842 38.9016 126.231 39.0128 126.71 39.0128C127.154 39.0128 127.505 38.9145 127.761 38.7179C128.017 38.5213 128.146 38.2734 128.146 37.9742C128.146 37.6665 128.009 37.44 127.735 37.2947C127.462 37.1408 127.039 36.9913 126.466 36.8459C125.945 36.7092 125.517 36.5724 125.184 36.4357C124.859 36.2904 124.577 36.0809 124.338 35.8074C124.107 35.5253 123.992 35.1578 123.992 34.7048C123.992 34.3458 124.098 34.0167 124.312 33.7175C124.526 33.4184 124.829 33.1833 125.222 33.0124C125.616 32.8329 126.064 32.7431 126.569 32.7431C127.346 32.7431 127.975 32.9397 128.453 33.3329C128.932 33.7261 129.188 34.2646 129.223 34.9484H128.056C128.03 34.5808 127.881 34.2859 127.607 34.0637C127.342 33.8415 126.983 33.7304 126.53 33.7304C126.111 33.7304 125.778 33.8201 125.53 33.9996C125.282 34.1791 125.158 34.4142 125.158 34.7048C125.158 34.9356 125.231 35.1279 125.376 35.2817C125.53 35.427 125.718 35.5467 125.94 35.6407C126.171 35.7262 126.487 35.8245 126.889 35.9356C127.394 36.0724 127.804 36.2092 128.12 36.3459C128.436 36.4741 128.706 36.6707 128.928 36.9357C129.159 37.2007 129.278 37.5468 129.287 37.9742C129.287 38.3589 129.18 38.705 128.966 39.0128C128.753 39.3205 128.449 39.5641 128.056 39.7436C127.671 39.9145 127.227 40 126.723 40Z" fill="white"/>
<path d="M13.1519 3.76828L10.7813 15.6665H9.68725L10.1431 13.3416C9.56568 14.1013 8.84389 14.694 7.97773 15.1195C7.12677 15.5449 6.17704 15.7577 5.12854 15.7577C3.57858 15.7577 2.33254 15.317 1.3904 14.4356C0.463468 13.5391 0 12.331 0 10.8115C0 9.45906 0.288718 8.24341 0.866154 7.16451C1.44359 6.07043 2.24136 5.21947 3.25947 4.61164C4.29278 3.98862 5.44765 3.67711 6.72409 3.67711C7.95494 3.67711 8.97305 3.94303 9.77842 4.47488C10.5838 5.00673 11.1308 5.75891 11.4196 6.73144L12.0122 3.76828H13.1519ZM5.35648 14.732C6.42017 14.732 7.3699 14.4736 8.20567 13.957C9.05662 13.4403 9.72523 12.7261 10.2115 11.8144C10.6978 10.8875 10.9409 9.84655 10.9409 8.69168C10.9409 7.43044 10.5686 6.45032 9.82401 5.75132C9.09461 5.05231 8.06131 4.70281 6.72409 4.70281C5.66039 4.70281 4.70306 4.96874 3.8521 5.50059C3.01634 6.01724 2.35533 6.73904 1.86907 7.66597C1.38281 8.57771 1.13968 9.60342 1.13968 10.7431C1.13968 12.0043 1.50437 12.9845 2.23376 13.6835C2.97835 14.3825 4.01926 14.732 5.35648 14.732Z" fill="white"/>
</g>
</svg>
